# Blender v2.79 (sub 0) OBJ File: ''
# www.blender.org
mtllib untitled.mtl
o n0b0
v 0.396782 0.992311 -0.286703
v 0.396782 0.992311 -0.286703
v 0.000000 0.827959 -0.286703
v 0.000000 0.827959 -0.286703
v 0.535641 0.621670 -0.286703
v 0.535641 0.621670 -0.286703
v 0.535641 0.621670 -0.286703
v 0.000000 0.411874 -0.286703
v 0.000000 0.411874 -0.286703
v 0.000000 0.411874 -0.286703
v 0.535642 0.621670 0.286703
v 0.535642 0.621670 0.286703
v 0.535642 0.621670 0.286703
v 0.000000 0.411874 0.286703
v 0.000000 0.411874 0.286703
v 0.000000 0.411874 0.286703
v 0.396782 0.992311 0.286703
v 0.396782 0.992311 0.286703
v 0.000000 0.827959 0.286703
v 0.000000 0.827959 0.286703
v 0.561134 1.389093 -0.286703
v 0.561134 1.389093 -0.286703
v 0.921406 1.225199 -0.286703
v 0.921406 1.225199 -0.286703
v 0.921406 1.225199 -0.286703
v 0.767423 0.853451 -0.286703
v 0.767423 0.853451 -0.286703
v 0.767423 0.853451 -0.286703
v 0.921406 1.225199 0.286703
v 0.921406 1.225199 0.286703
v 0.921406 1.225199 0.286703
v 0.767423 0.853451 0.286703
v 0.767423 0.853451 0.286703
v 0.767423 0.853451 0.286703
v 0.561134 1.389093 0.286703
v 0.561134 1.389093 0.286703
v 0.396782 1.785875 -0.286703
v 0.396782 1.785875 -0.286703
v 0.767423 1.924735 -0.286703
v 0.767423 1.924735 -0.286703
v 0.767423 1.924735 -0.286703
v 0.921406 1.552987 -0.286703
v 0.921406 1.552987 -0.286703
v 0.921406 1.552987 -0.286703
v 0.767423 1.924735 0.286703
v 0.767423 1.924735 0.286703
v 0.767423 1.924735 0.286703
v 0.921406 1.552987 0.286703
v 0.921406 1.552987 0.286703
v 0.921406 1.552987 0.286703
v 0.396782 1.785875 0.286703
v 0.396782 1.785875 0.286703
v 0.000000 1.950227 -0.286703
v 0.000000 1.950227 -0.286703
v 0.233997 2.310499 -0.286703
v 0.233997 2.310499 -0.286703
v 0.535641 2.156516 -0.286703
v 0.535641 2.156516 -0.286703
v 0.535641 2.156516 -0.286703
v 0.233997 2.310499 0.286703
v 0.233997 2.310499 0.286703
v 0.535641 2.156516 0.286703
v 0.535641 2.156516 0.286703
v 0.535641 2.156516 0.286703
v 0.000000 1.950227 0.286703
v 0.000000 1.950227 0.286703
v -0.396782 0.992311 -0.286703
v -0.396782 0.992311 -0.286703
v -0.562062 0.592001 -0.286703
v -0.562062 0.592001 -0.286703
v -0.562062 0.592001 -0.286703
v -0.562062 0.592001 0.286703
v -0.562062 0.592001 0.286703
v -0.562062 0.592001 0.286703
v -0.396782 0.992311 0.286703
v -0.396782 0.992311 0.286703
v -0.561134 1.389093 -0.286703
v -0.561134 1.389093 -0.286703
v -0.921406 1.225199 -0.286703
v -0.921406 1.225199 -0.286703
v -0.921406 1.225199 -0.286703
v -0.767423 0.853451 -0.286703
v -0.767423 0.853451 -0.286703
v -0.767423 0.853451 -0.286703
v -0.921406 1.225199 0.286703
v -0.921406 1.225199 0.286703
v -0.921406 1.225199 0.286703
v -0.767423 0.853451 0.286703
v -0.767423 0.853451 0.286703
v -0.767423 0.853451 0.286703
v -0.561134 1.389093 0.286703
v -0.561134 1.389093 0.286703
v -0.396782 1.785875 -0.286703
v -0.396782 1.785875 -0.286703
v -0.767423 1.924735 -0.286703
v -0.767423 1.924735 -0.286703
v -0.767423 1.924735 -0.286703
v -0.921406 1.552987 -0.286703
v -0.921406 1.552987 -0.286703
v -0.921406 1.552987 -0.286703
v -0.767423 1.924735 0.286703
v -0.767423 1.924735 0.286703
v -0.767423 1.924735 0.286703
v -0.921406 1.552987 0.286703
v -0.921406 1.552987 0.286703
v -0.921406 1.552987 0.286703
v -0.396782 1.785875 0.286703
v -0.396782 1.785875 0.286703
v -0.233997 2.310499 -0.286703
v -0.233997 2.310499 -0.286703
v -0.233997 2.310499 -0.286703
v -0.535642 2.156516 -0.286703
v -0.535642 2.156516 -0.286703
v -0.535642 2.156516 -0.286703
v -0.233997 2.310499 0.286703
v -0.233997 2.310499 0.286703
v -0.233997 2.310499 0.286703
v -0.535642 2.156516 0.286703
v -0.535642 2.156516 0.286703
v -0.535642 2.156516 0.286703
v -0.310028 2.236313 -0.278343
v -0.310028 2.236313 -0.278343
v -0.310028 2.236313 0.278734
v -0.244651 2.672926 0.141159
v -0.244651 2.672926 0.141159
v -0.244651 2.672926 -0.140769
v -0.244651 2.672926 -0.140769
v -0.163775 2.281485 0.277279
v -0.163775 2.281485 0.277279
v -0.163775 2.281485 -0.269833
v -0.163775 2.281485 -0.269833
v 0.310028 2.236313 -0.278343
v 0.310028 2.236313 -0.278343
v 0.310028 2.236313 0.278734
v 0.244651 2.672926 0.141159
v 0.244651 2.672926 0.141159
v 0.244651 2.672926 -0.140769
v 0.244651 2.672926 -0.140769
v 0.244651 2.672926 -0.140769
v 0.163775 2.281485 0.277279
v 0.163775 2.281485 0.277279
v 0.163775 2.281485 -0.269833
v 0.163775 2.281485 -0.269833
v 0.028081 -2.499980 -0.268420
v -0.240339 -2.499980 0.000000
v 0.028081 -2.499980 0.268420
v 0.296500 -2.499980 0.000000
v 0.028081 0.535830 -0.268420
v -0.240339 0.535830 0.000000
v 0.028081 0.535830 0.268420
v 0.296500 0.535830 0.000000
v 0.028081 -2.692874 0.000000
v -0.240339 -0.251370 0.000000
v 0.028081 -0.251370 0.268420
v 0.296500 -0.251370 0.000000
v 0.028081 -0.251370 -0.268420
v 0.028081 0.192809 -0.268420
v -0.240339 0.192809 0.000000
v 0.028081 0.192809 0.268420
v 0.296500 0.192809 0.000000
v 0.028081 0.119824 -0.360419
v -0.332337 0.119824 0.000000
v 0.028081 0.119824 0.360419
v 0.388499 0.119824 0.000000
v 0.388499 -0.178385 0.000000
v 0.028081 -0.178385 -0.360419
v -0.332337 -0.178385 0.000000
v 0.028081 -0.178385 0.360419
v 0.028513 -1.369046 -0.208357
v 0.028513 -1.160687 0.000000
v 0.028513 -1.369046 0.208357
v 0.028513 -1.577403 0.000000
v 1.004975 -1.369046 -0.206367
v 1.004975 -1.162677 0.000000
v 1.004975 -1.369046 0.206368
v 1.004975 -1.575414 0.000000
v 1.192916 -1.369046 0.000000
v 0.028610 -2.159287 -0.208357
v 0.028610 -2.367645 0.000000
v 0.028610 -2.159287 0.208357
v 0.028610 -1.950930 0.000000
v 0.690063 -2.159287 -0.208296
v 0.690063 -2.367584 0.000000
v 0.690063 -2.159287 0.208296
v 0.690063 -1.950991 0.000000
v 0.904420 -2.159287 0.000000
v -0.767925 2.379687 -0.113174
v -0.767925 2.379687 0.113174
v -0.897246 2.250366 -0.113174
v -0.897245 2.250366 0.113174
v -1.177453 1.485489 -0.004539
v -1.177453 1.485489 -0.230887
v -1.177453 1.302601 -0.230887
v -1.177453 1.302601 -0.004539
v -0.897246 0.626120 -0.113174
v -0.897246 0.626120 0.113174
v -0.782666 0.480246 0.113174
v -0.782666 0.480246 -0.113174
v 0.897246 0.626120 0.113174
v 0.897246 0.626120 -0.113174
v 0.767925 0.496799 -0.113174
v 0.767925 0.496799 0.113174
v 1.177453 1.410569 0.189170
v 1.177453 1.410569 -0.037179
v 1.177453 1.227681 -0.037179
v 1.177453 1.227681 0.189170
v 0.897246 2.210163 -0.113174
v 0.767925 2.339484 -0.113174
v 0.767925 2.339484 0.113174
v 0.897246 2.210163 0.113174
v 0.119081 2.544253 -0.185467
v 0.119081 2.544253 -0.185467
v 0.119081 2.544253 0.185858
v 0.119081 2.544253 0.185858
v 0.119081 2.544253 0.185858
v -0.119081 2.544253 0.185858
v -0.119081 2.544253 0.185858
v -0.119081 2.544253 0.185858
v -0.119081 2.544253 -0.185467
v -0.119081 2.544253 -0.185467
vt 0.899109 0.518616
vt 0.899109 0.055603
vt 0.827515 0.518616
vt 0.970764 0.055603
vt 0.970764 0.518616
vt 0.899109 0.055603
vt 0.899109 0.518616
vt 0.827515 0.055603
vt 0.899109 0.595032
vt 0.899109 0.533630
vt 0.802979 0.595032
vt 0.995300 0.533630
vt 0.995300 0.595032
vt 0.899109 0.533630
vt 0.899109 0.595032
vt 0.802979 0.533630
vt 0.015747 0.986206
vt 0.453186 0.985840
vt 0.015747 0.937012
vt 0.453186 0.937012
vt 0.015747 0.937012
vt 0.453186 0.898560
vt 0.015747 0.898132
vt 0.453186 0.937012
vt 0.551086 0.941956
vt 0.868408 0.903137
vt 0.551086 0.903137
vt 0.868408 0.941956
vt 0.551086 0.986755
vt 0.868408 0.986755
vt 0.551086 0.941956
vt 0.868408 0.941956
vt 0.970764 0.610046
vt 0.899109 0.610046
vt 0.827515 0.610046
vt 0.899109 0.610046
vt 0.899109 0.680664
vt 0.970764 0.680664
vt 0.899109 0.680664
vt 0.827515 0.680664
vt 0.494568 0.099548
vt 0.430115 0.015381
vt 0.593201 0.015381
vt 0.430237 0.293518
vt 0.494568 0.209351
vt 0.593201 0.293518
vt 0.542053 0.209351
vt 0.542053 0.099548
vt 0.621216 0.568909
vt 0.748718 0.568909
vt 0.621216 0.632263
vt 0.748718 0.488647
vt 0.621216 0.488647
vt 0.748718 0.416870
vt 0.621216 0.416870
vt 0.748718 0.339417
vt 0.621216 0.339417
vt 0.621216 0.416870
vt 0.298218 0.468262
vt 0.296631 0.315369
vt 0.196045 0.509338
vt 0.460388 0.377625
vt 0.400391 0.509338
vt 0.531250 0.446411
vt 0.442688 0.608521
vt 0.578308 0.556763
vt 0.578308 0.653992
vt 0.541382 0.209045
vt 0.592529 0.015015
vt 0.541382 0.099243
vt 0.592529 0.293213
vt 0.493896 0.209045
vt 0.430115 0.293213
vt 0.493896 0.099243
vt 0.430115 0.015015
vt 0.014954 0.653992
vt 0.196045 0.707703
vt 0.062012 0.764343
vt 0.153687 0.608521
vt 0.014954 0.556763
vt 0.196045 0.509338
vt 0.062012 0.446411
vt 0.124817 0.368835
vt 0.298218 0.748779
vt 0.368164 0.878784
vt 0.400391 0.707703
vt 0.225098 0.878784
vt 0.196045 0.707703
vt 0.132874 0.833130
vt 0.062012 0.764343
vt 0.421143 0.293213
vt 0.359741 0.209045
vt 0.359741 0.099243
vt 0.312256 0.209045
vt 0.249695 0.293213
vt 0.249695 0.015015
vt 0.421143 0.015015
vt 0.312256 0.099243
vt 0.225098 0.878784
vt 0.298218 0.748779
vt 0.368164 0.878784
vt 0.132874 0.833130
vt 0.359253 0.099243
vt 0.421021 0.015015
vt 0.311768 0.099243
vt 0.421021 0.293213
vt 0.359253 0.209045
vt 0.311768 0.209045
vt 0.670837 0.292786
vt 0.742004 0.014587
vt 0.742004 0.292786
vt 0.670837 0.014587
vt 0.593384 0.292786
vt 0.593384 0.014587
vt 0.063110 0.293213
vt 0.130066 0.209045
vt 0.237610 0.293213
vt 0.130066 0.099243
vt 0.063110 0.015015
vt 0.237610 0.015015
vt 0.177551 0.209045
vt 0.177551 0.099243
vt 0.249573 0.015015
vt 0.249573 0.293213
vt 0.296631 0.315369
vt 0.298218 0.468262
vt 0.400391 0.509338
vt 0.531250 0.446411
vt 0.578308 0.556763
vt 0.460388 0.377625
vt 0.400391 0.707703
vt 0.460388 0.833130
vt 0.531250 0.764343
vt 0.062012 0.446411
vt 0.014954 0.556763
vt 0.124817 0.368835
vt 0.899109 0.004639
vt 0.532471 0.937012
vt 0.992371 0.941956
vt 0.359802 0.209351
vt 0.421143 0.015381
vt 0.359802 0.099548
vt 0.421143 0.293518
vt 0.249695 0.293518
vt 0.312317 0.099548
vt 0.249573 0.015381
vt 0.312317 0.209351
vt 0.748718 0.632263
vt 0.748718 0.568909
vt 0.531250 0.764343
vt 0.621216 0.568909
vt 0.748718 0.488647
vt 0.621216 0.488647
vt 0.748718 0.416870
vt 0.876038 0.802856
vt 0.852173 0.710144
vt 0.852600 0.779846
vt 0.876160 0.698181
vt 0.808533 0.710144
vt 0.784668 0.802856
vt 0.808105 0.779846
vt 0.784546 0.698181
vt 0.784668 0.802856
vt 0.808533 0.710144
vt 0.808105 0.779846
vt 0.784546 0.698181
vt 0.852173 0.710144
vt 0.876038 0.802856
vt 0.852600 0.779846
vt 0.876160 0.698181
vt 0.939453 0.802856
vt 0.970764 0.698181
vt 0.582092 0.846130
vt 0.634155 0.885437
vt 0.582092 0.885437
vt 0.634155 0.846130
vt 0.784790 0.876892
vt 0.876038 0.802856
vt 0.876038 0.876892
vt 0.721252 0.802856
vt 0.689880 0.698181
vt 0.593384 0.292786
vt 0.670837 0.014587
vt 0.593384 0.014587
vt 0.670837 0.292786
vt 0.528015 0.795715
vt 0.545898 0.846069
vt 0.575134 0.795715
vt 0.599609 0.293457
vt 0.742188 0.015320
vt 0.742188 0.293457
vt 0.599609 0.015320
vt 0.600098 0.293457
vt 0.742737 0.015320
vt 0.600098 0.015320
vt 0.742737 0.293457
vt 0.153687 0.608521
vt 0.014954 0.653992
vt 0.460388 0.833130
vt 0.442688 0.608521
vt 0.578308 0.653992
vt 0.599670 0.293457
vt 0.742310 0.015320
vt 0.742310 0.293457
vt 0.599670 0.015320
vt 0.600098 0.293457
vt 0.742737 0.015320
vt 0.742737 0.293457
vt 0.600098 0.015320
vt 0.641113 0.795715
vt 0.670288 0.846069
vt 0.688171 0.795715
vt 0.742188 0.015320
vt 0.599609 0.293457
vt 0.599609 0.015320
vt 0.742188 0.293457
vt 0.599670 0.293457
vt 0.742310 0.015320
vt 0.599670 0.015320
vt 0.742310 0.293457
vn -0.7071 0.0000 -0.7071
vn 0.7071 0.0000 -0.7071
vn 0.7071 0.0000 0.7071
vn -0.7071 0.0000 0.7071
vn 0.5279 -0.6654 -0.5279
vn -0.5279 -0.6654 -0.5279
vn -0.5279 -0.6654 0.5279
vn 0.5279 -0.6654 0.5279
vn 0.0014 0.7071 -0.7071
vn 0.0014 0.7071 0.7071
vn 0.0014 -0.7071 0.7071
vn 0.0014 -0.7071 -0.7071
vn 0.0001 -0.7071 -0.7071
vn 0.0001 0.7071 -0.7071
vn 0.0001 0.7071 0.7071
vn 0.0001 -0.7071 0.7071
vn 0.5279 0.6654 0.5279
vn 0.5279 0.6654 -0.5279
vn -0.5279 0.6654 -0.5279
vn -0.5279 0.6654 0.5279
vn 0.3598 0.3598 -0.8609
vn 0.9103 -0.4140 0.0000
vn 0.3598 0.3598 0.8609
vn -0.6188 0.7856 0.0000
vn 0.3827 -0.9239 0.0000
vn 0.9239 -0.3827 0.0000
vn 0.9239 0.3827 0.0000
vn 0.3827 0.9239 -0.0000
vn -0.3827 0.9239 0.0000
vn 0.0000 0.0000 -1.0000
vn -0.8684 0.4959 0.0000
vn -0.4576 -0.3594 0.8133
vn 0.4519 -0.8921 0.0000
vn -0.0000 0.0000 1.0000
vn -0.2549 0.9670 0.0000
vn -0.2130 0.0000 -0.9771
vn -0.2894 -0.9572 0.0000
vn -0.7510 0.0000 0.6603
vn 0.4004 -0.4004 0.8242
vn 0.8684 0.4959 0.0000
vn 0.4004 -0.4004 -0.8242
vn 0.0000 1.0000 0.0000
vn 0.4547 0.8907 0.0000
vn 0.3560 0.0000 0.9345
vn 0.0097 -1.0000 0.0000
vn 0.6979 0.0000 -0.7162
vn 0.4861 0.8739 0.0000
vn -0.4735 -0.8808 0.0000
vn 0.5040 -0.7014 -0.5040
vn -0.5040 -0.7014 -0.5040
vn -0.5040 -0.7014 0.5040
vn 0.6133 0.5585 0.5585
vn 0.6133 0.5585 -0.5585
vn 0.6133 -0.5585 -0.5585
vn 0.5663 0.5828 -0.5828
vn 0.5663 -0.5828 -0.5828
vn 0.5663 -0.5828 0.5828
vn 0.6928 0.7211 0.0000
vn -0.3354 0.3354 0.8803
vn -0.9289 -0.3703 0.0000
vn -0.4576 -0.3594 -0.8133
vn -0.3354 0.3354 -0.8803
vn -0.3827 -0.9239 0.0000
vn -0.9239 -0.3827 0.0000
vn -0.9239 0.3827 0.0000
vn 0.0218 0.3090 -0.9508
vn 0.0390 0.3056 -0.9514
vn -0.0218 0.3090 -0.9508
vn -0.0390 0.3056 -0.9514
vn 0.0004 0.3285 0.9445
vn -0.0867 0.3112 0.9464
vn -0.0004 0.3285 0.9445
vn 0.0867 0.3112 0.9464
vn 0.0000 0.3281 0.9446
vn 0.9890 0.1481 0.0000
vn 0.0000 -1.0000 0.0000
vn 0.0000 0.3281 -0.9446
vn -0.9890 0.1481 0.0000
vn -0.4547 0.8907 0.0000
vn 0.9858 -0.1677 0.0000
vn 0.3647 -0.9311 -0.0000
vn -0.7071 0.7071 0.0000
vn -1.0000 0.0000 0.0000
vn 0.7071 0.7071 0.0000
vn -0.9858 -0.1677 0.0000
vn 0.7071 -0.7071 0.0000
vn 1.0000 -0.0000 0.0000
vn -0.3052 -0.9523 0.0000
vn -0.7864 -0.6177 0.0000
vn 0.5040 -0.7014 0.5040
vn 0.6133 -0.5585 0.5585
vn 0.5663 0.5828 0.5828
usemtl m0
s off
f 156/1/1 144/2/1 153/3/1
f 144/2/2 156/1/2 147/4/2
f 155/5/2 147/4/2 156/1/2
f 147/4/3 155/5/3 146/6/3
f 154/7/3 146/6/3 155/5/3
f 146/6/4 154/7/4 145/8/4
f 153/3/4 145/8/4 154/7/4
f 145/8/1 153/3/1 144/2/1
f 161/9/1 166/10/1 162/11/1
f 166/10/2 161/9/2 165/12/2
f 164/13/2 165/12/2 161/9/2
f 165/12/3 164/13/3 168/14/3
f 163/15/3 168/14/3 164/13/3
f 168/14/4 163/15/4 167/16/4
f 162/11/4 167/16/4 163/15/4
f 167/16/1 162/11/1 166/10/1
f 156/1/5 166/10/5 155/5/5
f 166/10/6 156/1/6 167/16/6
f 153/3/6 167/16/6 156/1/6
f 167/16/7 153/3/7 168/14/7
f 154/7/7 168/14/7 153/3/7
f 168/14/8 154/7/8 165/12/8
f 155/5/8 165/12/8 154/7/8
f 165/12/5 155/5/5 166/10/5
f 170/17/9 174/18/9 169/19/9
f 174/18/10 170/17/10 175/20/10
f 171/21/10 175/20/10 170/17/10
f 175/20/11 171/21/11 176/22/11
f 172/23/11 176/22/11 171/21/11
f 176/22/12 172/23/12 173/24/12
f 169/19/12 173/24/12 172/23/12
f 173/24/9 169/19/9 174/18/9
f 178/25/13 183/26/13 179/27/13
f 183/26/13 178/25/13 182/28/13
f 181/29/14 182/28/14 178/25/14
f 182/28/14 181/29/14 185/30/14
f 180/31/15 185/30/15 181/29/15
f 185/30/15 180/31/15 184/32/15
f 179/27/16 184/32/16 180/31/16
f 184/32/16 179/27/16 183/26/16
f 164/13/17 160/33/17 163/15/17
f 160/33/18 164/13/18 157/34/18
f 161/9/18 157/34/18 164/13/18
f 157/34/19 161/9/19 158/35/19
f 162/11/19 158/35/19 161/9/19
f 158/35/20 162/11/20 159/36/20
f 163/15/20 159/36/20 162/11/20
f 159/36/17 163/15/17 160/33/17
f 159/36/4 150/37/4 158/35/4
f 150/37/3 159/36/3 151/38/3
f 160/33/3 151/38/3 159/36/3
f 151/38/2 160/33/2 148/39/2
f 157/34/2 148/39/2 160/33/2
f 148/39/1 157/34/1 149/40/1
f 158/35/1 149/40/1 157/34/1
f 149/40/4 158/35/4 150/37/4
f 207/41/21 41/42/21 59/43/21
f 41/42/22 207/41/22 47/44/22
f 210/45/22 47/44/22 207/41/22
f 47/44/23 210/45/23 64/46/23
f 209/47/23 64/46/23 210/45/23
f 64/46/24 209/47/24 59/43/24
f 208/48/24 59/43/24 209/47/24
f 59/43/21 208/48/21 207/41/21
f 107/49/25 93/50/25 66/51/25
f 93/50/26 107/49/26 77/52/26
f 91/53/26 77/52/26 107/49/26
f 77/52/27 91/53/27 67/54/27
f 75/55/27 67/54/27 91/53/27
f 67/54/28 75/55/28 4/56/28
f 20/57/28 4/56/28 75/55/28
f 4/56/29 20/57/29 18/58/29
f 3/59/30 10/60/30 68/61/30
f 10/60/30 3/59/30 7/62/30
f 1/63/30 7/62/30 3/59/30
f 7/62/30 1/63/30 27/64/30
f 1/63/30 21/65/30 27/64/30
f 27/64/30 21/65/30 25/66/30
f 43/67/30 25/66/30 21/65/30
f 196/68/31 84/69/31 195/70/31
f 84/69/31 196/68/31 90/71/31
f 197/72/32 90/71/32 196/68/32
f 90/71/32 197/72/32 74/73/32
f 198/74/33 74/73/33 197/72/33
f 74/73/33 198/74/33 71/75/33
f 105/76/34 108/77/34 102/78/34
f 108/77/34 105/76/34 92/79/34
f 86/80/34 92/79/34 105/76/34
f 92/79/34 86/80/34 76/81/34
f 89/82/34 76/81/34 86/80/34
f 76/81/34 89/82/34 73/83/34
f 53/84/30 56/85/30 37/86/30
f 56/85/30 53/84/30 110/87/30
f 94/88/30 110/87/30 53/84/30
f 110/87/30 94/88/30 113/89/30
f 96/90/30 113/89/30 94/88/30
f 100/91/35 192/92/35 191/93/35
f 192/92/36 100/91/36 193/94/36
f 81/95/36 193/94/36 100/91/36
f 193/94/37 81/95/37 87/96/37
f 191/93/35 106/97/35 100/91/35
f 106/97/38 191/93/38 87/96/38
f 194/98/38 87/96/38 191/93/38
f 87/96/37 194/98/37 193/94/37
f 116/99/34 65/100/34 61/101/34
f 65/100/34 116/99/34 108/77/34
f 119/102/34 108/77/34 116/99/34
f 108/77/34 119/102/34 102/78/34
f 199/103/39 34/104/39 202/105/39
f 34/104/40 199/103/40 26/106/40
f 200/107/40 26/106/40 199/103/40
f 26/106/41 200/107/41 201/108/41
f 60/109/42 111/110/42 117/111/42
f 111/110/42 60/109/42 55/112/42
f 63/113/43 55/112/43 60/109/43
f 55/112/43 63/113/43 58/114/43
f 29/115/44 206/116/44 50/117/44
f 206/116/45 29/115/45 205/118/45
f 23/119/45 205/118/45 29/115/45
f 205/118/46 23/119/46 42/120/46
f 203/121/44 50/117/44 206/116/44
f 50/117/47 203/121/47 42/120/47
f 204/122/47 42/120/47 203/121/47
f 42/120/46 204/122/46 205/118/46
f 11/123/39 202/105/39 34/104/39
f 202/105/48 11/123/48 201/108/48
f 5/124/48 201/108/48 11/123/48
f 201/108/41 5/124/41 26/106/41
f 16/125/34 76/81/34 73/83/34
f 76/81/34 16/125/34 19/126/34
f 17/127/34 19/126/34 16/125/34
f 17/127/34 32/128/34 31/129/34
f 32/128/34 17/127/34 13/130/34
f 16/125/34 13/130/34 17/127/34
f 51/131/34 61/101/34 65/100/34
f 61/101/34 51/131/34 62/132/34
f 46/133/34 62/132/34 51/131/34
f 68/61/30 83/134/30 80/135/30
f 83/134/30 68/61/30 70/136/30
f 10/60/30 70/136/30 68/61/30
f 152/137/49 144/2/49 147/4/49
f 144/2/50 152/137/50 145/8/50
f 146/6/51 145/8/51 152/137/51
f 177/138/52 174/18/52 175/20/52
f 174/18/53 177/138/53 173/24/53
f 176/22/54 173/24/54 177/138/54
f 186/139/55 182/28/55 185/30/55
f 182/28/56 186/139/56 183/26/56
f 184/32/57 183/26/57 186/139/57
f 188/140/58 114/141/58 187/142/58
f 114/141/58 188/140/58 120/143/58
f 103/144/59 120/143/59 188/140/59
f 103/144/60 189/145/60 97/146/60
f 189/145/60 103/144/60 190/147/60
f 188/140/59 190/147/59 103/144/59
f 198/74/61 84/69/61 71/75/61
f 84/69/61 198/74/61 195/70/61
f 189/145/62 114/141/62 97/146/62
f 114/141/62 189/145/62 187/142/62
f 54/148/25 66/51/25 93/50/25
f 66/51/63 54/148/63 38/149/63
f 37/86/30 43/67/30 21/65/30
f 43/67/30 37/86/30 40/150/30
f 38/149/63 52/151/63 66/51/63
f 52/151/64 38/149/64 22/152/64
f 22/152/64 36/153/64 52/151/64
f 36/153/65 22/152/65 2/154/65
f 2/154/65 18/58/65 36/153/65
f 18/58/29 2/154/29 4/56/29
f 138/155/66 142/156/66 211/157/66
f 142/156/67 138/155/67 133/158/67
f 130/159/68 126/160/68 219/161/68
f 126/160/69 130/159/69 121/162/69
f 124/163/70 128/164/70 216/165/70
f 128/164/71 124/163/71 123/166/71
f 140/167/72 136/168/72 213/169/72
f 136/168/73 140/167/73 134/170/73
f 124/163/74 213/169/74 136/168/74
f 213/169/74 124/163/74 216/165/74
f 134/170/75 139/171/75 136/168/75
f 139/171/75 134/170/75 132/172/75
f 220/173/76 214/174/76 217/175/76
f 214/174/76 220/173/76 212/176/76
f 126/160/77 211/157/77 219/161/77
f 211/157/77 126/160/77 138/155/77
f 137/177/42 125/178/42 135/179/42
f 125/178/42 137/177/42 126/160/42
f 123/166/78 127/180/78 122/181/78
f 127/180/78 123/166/78 124/163/78
f 118/182/79 109/183/79 112/184/79
f 109/183/79 118/182/79 115/185/79
f 129/186/80 220/173/80 218/187/80
f 220/173/80 129/186/80 131/188/80
f 14/189/81 6/190/81 12/191/81
f 6/190/81 14/189/81 8/192/81
f 189/145/82 188/140/82 187/142/82
f 188/140/82 189/145/82 190/147/82
f 104/193/65 95/194/65 98/195/65
f 95/194/65 104/193/65 101/196/65
f 192/92/83 194/98/83 191/93/83
f 194/98/83 192/92/83 193/94/83
f 78/197/30 80/135/30 99/198/30
f 80/135/30 78/197/30 68/61/30
f 94/88/30 99/198/30 96/90/30
f 99/198/30 94/88/30 78/197/30
f 57/199/30 37/86/30 56/85/30
f 37/86/30 57/199/30 40/150/30
f 35/200/34 31/129/34 48/201/34
f 31/129/34 35/200/34 17/127/34
f 51/131/34 48/201/34 46/133/34
f 48/201/34 51/131/34 35/200/34
f 33/202/26 24/203/26 30/204/26
f 24/203/26 33/202/26 28/205/26
f 207/41/84 209/47/84 210/45/84
f 209/47/84 207/41/84 208/48/84
f 49/206/27 39/207/27 45/208/27
f 39/207/27 49/206/27 44/209/27
f 143/210/85 215/211/85 212/176/85
f 215/211/85 143/210/85 141/212/85
f 202/105/86 200/107/86 199/103/86
f 200/107/86 202/105/86 201/108/86
f 206/116/87 204/122/87 203/121/87
f 204/122/87 206/116/87 205/118/87
f 9/213/88 72/214/88 69/215/88
f 72/214/88 9/213/88 15/216/88
f 195/70/89 197/72/89 196/68/89
f 197/72/89 195/70/89 198/74/89
f 88/217/64 79/218/64 82/219/64
f 79/218/64 88/217/64 85/220/64
f 147/4/90 146/6/90 152/137/90
f 175/20/91 176/22/91 177/138/91
f 184/32/92 186/139/92 185/30/92
